<?xml version="1.0" encoding="utf-8"?>
<!-- Generator: Adobe Illustrator 26.0.3, SVG Export Plug-In . SVG Version: 6.00 Build 0)  -->
<svg version="1.1" id="Layer_1" xmlns="http://www.w3.org/2000/svg" xmlns:xlink="http://www.w3.org/1999/xlink" x="0px" y="0px"
	 viewBox="0 0 936 702" style="enable-background:new 0 0 936 702;" xml:space="preserve">
<style type="text/css">
	.st0{fill:#E0C082;}
</style>
<g>
	<g>
		<g>
			<path class="st0" d="M146.11,458.18v35.43h45.16v-35.43h11.37v76.54h-11.37v-39.25h-45.16v39.25h-11.26v-76.54H146.11z"/>
			<path class="st0" d="M213.57,534.71v-76.54h11.37v76.54H213.57z"/>
			<path class="st0" d="M301.92,504.64v25.26c-8.75,4.59-16.95,5.47-23.29,5.47c-21.21,0-42.75-11.81-42.75-39.03
				c0-26.9,21.54-38.7,42.75-38.7c6.45,0,11.59,1.2,17.49,3.5l-0.77,1.53c-5.25-2.41-11.26-3.28-16.73-3.28
				c-20.66,0-31.38,18.7-31.38,36.96c0,18.48,10.61,37.17,31.38,37.17c4.81,0,7.87-0.55,11.92-1.97v-25.15h-7.65v-1.75H301.92z"/>
			<path class="st0" d="M324.11,458.18v35.43h45.16v-35.43h11.37v76.54h-11.37v-39.25h-45.16v39.25h-11.26v-76.54H324.11z"/>
			<path class="st0" d="M424.37,534.71l25.58-76.54h3.06l25.58,76.54h-10.28l-8.31-24.93h-25.37l-8.2,24.93H424.37z M435.2,508.03
				h24.27l-12.14-36.19L435.2,508.03z"/>
			<path class="st0" d="M547.38,504.64v25.26c-8.75,4.59-16.95,5.47-23.29,5.47c-21.21,0-42.75-11.81-42.75-39.03
				c0-26.9,21.54-38.7,42.75-38.7c6.45,0,11.59,1.2,17.49,3.5l-0.77,1.53c-5.25-2.41-11.26-3.28-16.73-3.28
				c-20.66,0-31.38,18.7-31.38,36.96c0,18.48,10.61,37.17,31.38,37.17c4.81,0,7.87-0.55,11.92-1.97v-25.15h-7.65v-1.75H547.38z"/>
			<path class="st0" d="M558.31,458.18h43.63v1.86h-32.25v31.6h21.1v1.86h-21.1v39.36h36.96v1.86h-48.33V458.18z"/>
			<path class="st0" d="M617.57,458.18h11.04l37.61,58.39v-58.39h1.97v76.54h-1.97l-46.8-72.38v72.38h-1.86V458.18z"/>
			<path class="st0" d="M679.13,496.33c0-26.9,21.54-38.7,42.75-38.7c6.45,0,11.59,1.2,17.49,3.5l-0.77,1.53
				c-5.25-2.41-11.26-3.28-16.73-3.28c-20.66,0-31.38,18.7-31.38,36.96c0,18.48,10.61,37.17,31.38,37.17
				c6.12,0,13.01-0.77,18.91-3.28l0.77,1.64c-5.68,2.51-13.34,3.5-19.68,3.5C700.67,535.37,679.13,523.56,679.13,496.33z"/>
			<path class="st0" d="M758.51,458.18l20.34,34.55l20.12-34.55h2.19c-2.3,3.83-6.67,11.37-10.93,18.7
				c-3.83,6.34-7.65,12.9-9.84,16.62v41.22H769v-39.36c-6.23-10.61-20.12-34-21.98-37.17H758.51z"/>
		</g>
		<g>
			<g>
				<path class="st0" d="M343.02,579.76c0-11.19,8.96-16.1,17.78-16.1c2.68,0,4.82,0.5,7.28,1.46l-0.32,0.64
					c-2.18-1-4.68-1.36-6.96-1.36c-8.6,0-13.05,7.78-13.05,15.37c0,7.69,4.41,15.46,13.05,15.46c2.55,0,5.41-0.32,7.87-1.36
					l0.32,0.68c-2.37,1.05-5.55,1.46-8.19,1.46C351.98,596,343.02,591.08,343.02,579.76z"/>
				<path class="st0" d="M371.27,579.99c0-8.5,5.55-16.19,17.01-16.19s17.05,7.69,17.05,16.19c0,8.41-5.59,16.1-17.05,16.1
					S371.27,588.4,371.27,579.99z M376,579.99c0,7.87,4,15.37,12.28,15.37c8.32,0,12.32-7.55,12.32-15.42
					c0-7.91-4-15.42-12.32-15.42C380,564.52,376,572.07,376,579.99z"/>
				<path class="st0" d="M414.61,594.95h15.37v0.77h-20.1v-31.83h4.73V594.95z"/>
				<path class="st0" d="M439.26,594.95h15.37v0.77h-20.1v-31.83h4.73V594.95z"/>
				<path class="st0" d="M459.18,563.89h18.15v0.77h-13.42v13.14h8.78v0.77h-8.78v16.37h15.37v0.77h-20.1V563.89z"/>
				<path class="st0" d="M481.55,579.76c0-11.19,8.96-16.1,17.78-16.1c2.68,0,4.82,0.5,7.28,1.46l-0.32,0.64
					c-2.18-1-4.68-1.36-6.96-1.36c-8.6,0-13.05,7.78-13.05,15.37c0,7.69,4.41,15.46,13.05,15.46c2.55,0,5.41-0.32,7.87-1.36
					l0.32,0.68c-2.37,1.05-5.55,1.46-8.19,1.46C490.51,596,481.55,591.08,481.55,579.76z"/>
				<path class="st0" d="M510.48,564.66v-0.77h21.47v0.77h-8.37v31.06h-4.73v-31.06H510.48z"/>
				<path class="st0" d="M536.49,595.72v-31.83h4.73v31.83H536.49z"/>
				<path class="st0" d="M545.77,563.89h4.28l8.73,26.15l8.69-26.15h0.86l-10.64,31.83h-1.27L545.77,563.89z"/>
				<path class="st0" d="M572.88,563.89h18.15v0.77h-13.42v13.14h8.78v0.77h-8.78v16.37h15.37v0.77h-20.1V563.89z"/>
			</g>
			<g>
				<g>
					<rect x="134.85" y="578.5" class="st0" width="195.31" height="2.76"/>
				</g>
				<g>
					<rect x="605.84" y="578.5" class="st0" width="195.31" height="2.76"/>
				</g>
			</g>
		</g>
	</g>
	<g>
		<path class="st0" d="M591.59,192.2c-0.21,0.64-1.59,4.83-3.98,13.91C588.37,201.45,589.6,196.62,591.59,192.2z"/>
		<path class="st0" d="M518.57,352.52c0,0-0.03-0.01-0.09-0.04C518.51,352.5,518.54,352.51,518.57,352.52z"/>
		<path class="st0" d="M322.35,339.73c0,0,34.31-71.37-36.18-70.94c0.48-0.36,16.01-11.77,35.11-5.13
			c16.37,5.69,25.75,22.78,22.7,39.84C342.1,314.06,336.36,326.81,322.35,339.73z"/>
		<path class="st0" d="M533.73,273.45c3.91,1.3,67.18,21.92,101.78,3.64c-0.3,0.08-4.54,1.22-9.54,1.18
			c6.69-0.19,26.5-4.05,47.19-39.53c0,0-12.34,9.8-29.38,6.13c0.94,0,41.72-0.21,38.56-39.25c0,0-7.98,6.61-13.73,6.39
			c0,0,15.13-5.72,12.76-21.65c0,0-2.22-48.12-54.67-77.47c0,0-31.2-16.31-51.98,1c-4.7,3.92-7.62,9.69-7.57,15.81
			c0.06,6.34,2.89,14.19,14.65,19.02c0,0-9.1-8.3-4.3-18.38c1.81-3.8,5.26-6.55,9.26-7.85c5.45-1.79,14.81-3.17,26.57,1.68
			c0,0-3,0.73-5.44,2.47c0,0,16.06-1.66,30.99,18.58c0,0-13.31-10.42-27.21-10.99c0,0,12.26,3.8,22.96,35.06
			c-0.51-1.06-8.71-18.14-17.07-25.42c0,0,3.39,4.82,5.39,30.74c0,0,5.99,19.65,2.94,29.04c-0.03-0.81-1.05-26.98-13.59-46.95
			c0,0,3.64,11.83-11.39,29.12c0,0-11.82,7.69-14.01,42.82c-0.05-0.46-1.17-10.95,0.7-22.53c-1.96,7.43-4.6,18.15-7.81,32.86
			l-1.32,0.17c0,0-0.13-47.13,23.63-61.81c-0.79,0.26-25.97,8.92-31.42,14.33c0,0-17.22,8.01-29.98,52.64
			c0,0-0.32-45.25,37.18-63.28c-2.19,0.92-20.54,8.52-41.82,11.91c0,0-38.92,7.33-51.45,68.27c-0.17-0.86-6.85-35.26,30.07-66.54
			c0,0-14.29,11.26-37.9,14.86c0,0-27.31,4.46-39.55,55.96c0.06-1.03,2.9-49.63,41.53-62.94c-1.03,0.23-17.73,3.93-32.59,4.51
			c0,0-48.48,3.21-46.84,64.28c-0.13-1.04-4.14-35.81,17.76-64.45c0,0-20.8,23.86-29.22,40.11c0,0,1.99-16.98,5.05-33.93
			c1.99-11.04,6.01-21.65,12.17-31.03c8.59-13.09,22.9-26.71,44.03-22.46c3.49,0.71,6.52,3.06,7.64,6.44
			c0.51,1.55,0.69,3.42,0.19,5.6c0,0,5.61-4.88-1.52-11.28c-3.02-2.7-6.93-4.19-10.96-4.5c-9.09-0.66-27.09,1.39-42.61,23.6
			c-4.87,6.97-8.49,14.72-10.99,22.84c-3.25,10.58-8.34,30-11.71,56.41c0,0-11.12,33.48-42.61,69.93c-2.59,3-5.56,5.64-8.75,7.98
			c-35.55,26.09-49.73,55.72-49.73,55.72c18.75-24.89,35.88-41.91,49.39-53.25c9.5-7.35,19.49-14.08,29.84-20.25
			c27.08-16.17,56.59-28.53,86.34-38.35c18.34-6.1,37.27-10.8,56.21-14.49c9.33-1.88,18.61-4.03,27.82-6.45
			c27.53-7.34,54.9-16.56,79.46-31.21c24.55-14.58,47.29-37.97,38.99-68.84c9.62,31.01-12.81,55.92-37.19,71.7
			c-32.62,20.96-70.01,33.09-107.37,42.49c-11.51,2.68-22.88,5.8-34.12,9.35l0.06-0.03c-0.08,0.03-0.15,0.06-0.23,0.09
			c-9.09,2.87-18.08,6.01-26.97,9.46c-24.21,9.36-47.92,20.69-69.9,34.34c-6.75,4.3-13.49,8.84-20.08,13.65
			c-0.01,0-0.02,0.01-0.03,0.02c-42.41,27.31-66.79,52.01-76.4,62.74c-0.18,0.21-0.35,0.43-0.51,0.66
			c-2.02,2.94-1.33,7.04,1.69,9.12c3.03,2.09,7.21,1.28,9.22-1.8c7.69-11.82,15.13-21.61,21.96-29.65
			c-0.46,0.58-0.92,1.18-1.38,1.76c9.34-10.49,23.12-24.8,31.38-28.01c0,0,33.25-17.14,87.9,19.16c0,0,39.68,22.27,64.52,20.93
			c-0.87-0.02-3.66-0.39-5.73-4.15c0,0,52.28,3.92,41.94-34.44c0,0,1.46,35.03-50.46,28.56c0,0-29.75-2.8-68.49-29.06
			c0,0-22.42-11.77-34.07-10.57c1.85-0.25,22.22-2.55,51.71,12.02c0,0,19,8.91,43.04,7.81c-1.04-0.08-22.34-2.08-57.33-33.05
			c0,0,47.27,32.14,78.99,24.66c0,0,25.4-5.95,29.89-4.87c-1.75-0.64-9.23-3.04-19.98-2.73c0,0-19.88-1.59-30.25-11.55
			c0,0,21.8,7.58,39.73,3.18c-0.75-0.02-24.98-0.92-64.45-28.15c0,0,14.69,5.89,34.12,16.07c0,0,39.17,21.9,79.89-0.81
			c0,0-31.6,8.5-70.19-13.93c0,0-12-8.27-27.46-12.88c0,0,8.1-1.18,33.11,12.12c0,0,41.21,17.25,81.15,8
			c-0.51-0.04-17.11-1.09-24.06-4.97c0,0,48.97,11.42,84.8-33.77C634.58,282.96,607.81,303.57,533.73,273.45z M452.64,209.92
			c-0.91,0.43-22.94,11.13-33.98,49.3C418.66,259.22,420.94,218.8,452.64,209.92z M492.62,208.65c0,0-24.9,16.96-33.7,53.97
			C458.95,260.86,460.13,220.09,492.62,208.65z M663.56,228.42c-0.73,0.24-15.66,5.06-35.18,2.74
			C626.13,230.88,662.46,228.49,663.56,228.42z M647.8,257.37c-18.96,5.88-42.36-0.48-43.79-0.9
			C623.4,258.6,647.06,257.41,647.8,257.37z M462.45,344.25c0,0-18.56-10.48-36.04-21.6C426.4,322.65,441.54,325.94,462.45,344.25z
			 M485.32,291.61l56.3,19.34C540.66,310.76,509.79,304.35,485.32,291.61z M511.15,282.61c1.63,0.49,53.79,16.42,58.06,18.42
			C568.17,300.83,534.63,294.45,511.15,282.61z"/>
		<path class="st0" d="M396.92,374.85c0,0,10.14,1.17,34.58,23.85c0,0,20.89,17.67,40.28,9.84c0,0-14.95,19.53-38.28,0.79
			c-1.89-1.52-3.63-3.21-5.28-4.98C423.14,398.9,408.25,383.25,396.92,374.85z"/>
		<path class="st0" d="M325.65,366.7c0,0,22.74-20.52,52.57-3.58c0,0,22.05,14.98,12.7,30.9c0,0,4.29-15.68-21.48-27.63
			c0,0,20.62,13.24,9.55,31.28c-2.69,4.39-7.51,7.19-12.65,6.86c-4.6-0.29-9.62-2.99-11.24-12.62c0,0,6.55,8.9,15.34,5
			c5.98-2.65,8.88-9.48,7.13-15.79c-1.29-4.65-4.64-10.16-12.66-14.59C364.91,366.53,347.72,357,325.65,366.7z"/>
		<path class="st0" d="M345.17,310.43c0,0,25.68-31.99,0.4-66.51c0,0,7.11,3.66,12.18,10.27c0,0-0.88-29.81-29.51-26.57
			c0,0,8.32-12.6,23.31-6.25c5.7,2.41,10.39,6.76,13.29,12.23C370.99,245.2,376.52,270.53,345.17,310.43z"/>
		<path class="st0" d="M379.87,188.35c0,0-3.53,7.02-4.45,16.37c-0.12,1.21-0.16,2.42-0.16,3.64c0.02,3.41-0.2,13.61-3.38,18.6
			c0,0,2.77-8.2-2.79-18.61c-0.76-1.42-1.42-2.89-1.85-4.44C365.81,198.76,365.25,189.3,379.87,188.35z"/>
	</g>
</g>
</svg>
